# xmcd CD database file
#
# Track frame offsets:
#	150
#	18605
#	37512
#	56570
#	72210
#	90175
#	109577
#	126087
#	147650
#	167462
#	186095
#	218780
#	234735
#	252192
#
# Disc length: 3673 seconds
#
# Revision: 0
# Processed by: cddbd v1.4PL0 Copyright (c) Steve Scherf et al.
# Submitted via: CDex 1.50Beta7
#
DISCID=b70e570e
DTITLE=Steve Freund - "C" for chicago
DYEAR=1999
DGENRE=Blues
TTITLE0=Please love me
TTITLE1="C" for Chicago
TTITLE2=I Love Money
TTITLE3=Wild Woman
TTITLE4=Jumping at shadows
TTITLE5=Working Man
TTITLE6=Forbidden Stuff
TTITLE7=Pallet On The Floor
TTITLE8=Highway Woman
TTITLE9=38th Street Blues
TTITLE10=Everytime I Get To Drinking
TTITLE11=Mr. Jacons Boogie
TTITLE12=Folks Like You
TTITLE13=Cool Dream
EXTD=YEAR: 1999
EXTT0=
EXTT1=
EXTT2=
EXTT3=
EXTT4=
EXTT5=
EXTT6=
EXTT7=
EXTT8=
EXTT9=
EXTT10=
EXTT11=
EXTT12=
EXTT13=
PLAYORDER=
